<svg xmlns="http://www.w3.org/2000/svg" viewBox="0 0 480 240" role="img" aria-labelledby="title desc">
  <title id="title">i𝒰s relational mark</title>
  <desc id="desc">I leans toward the Universal Operator and resolves into us.</desc>
  <path fill="#707ddd" transform="translate(26 174) rotate(-7.16197) scale(.12 -.18)" d="M309 747V597H55V747ZM62 490H302V0H62Z"/>
  <path transform="translate(67 190) scale(.2 -.17)" d="M272 -12C375 -12 439 50 482 97H485C490 38 507 -9 573 -9C645 -9 687 46 722 95L702 111C676 79 651 48 622 48C584 48 575 101 575 147C575 264 634 473 683 566C705 608 728 632 769 654L753 672C700 650 645 621 593 590C544 436 505 291 482 141C433 85 367 43 308 43C250 43 229 84 229 144C229 281 340 432 340 556C340 619 312 667 239 667C124 667 96 546 96 476V465H126C126 495 128 603 197 603C235 603 249 571 249 529C249 411 136 250 136 119C136 35 183 -12 272 -12Z" fill="#f8fbff" stroke="#137dff" stroke-width="28" stroke-linejoin="round" paint-order="stroke fill"/>
  <path fill="#31e2e7" transform="translate(260 190) rotate(2) scale(.12 -.18)" d="M40 176H261Q275 150 314.5 140Q354 130 428 130Q485 130 512.5 136Q540 142 548.5 152Q557 162 557 173Q557 190 538.5 196.5Q520 203 476 204.5Q432 206 355 206Q282 206 224.5 212.5Q167 219 127 233.5Q87 248 66 274Q45 300 45 339Q45 387 76 419.5Q107 452 160 470.5Q213 489 282.5 497Q352 505 428 505Q554 505 634 479.5Q714 454 752 411Q790 368 789 314H574Q563 340 532.5 350Q502 360 428 360Q358 360 326.5 349.5Q295 339 295 316Q295 301 310.5 293.5Q326 286 369.5 283Q413 280 497 280Q555 280 610.5 276Q666 272 710.5 259Q755 246 781 219Q807 192 807 145Q807 88 760.5 52.5Q714 17 629 1Q544 -15 428 -15Q327 -15 257.5 -2Q188 11 144 32.5Q100 54 76.5 79.5Q53 105 45.5 130.5Q38 156 40 176Z"/>
  <g transform="rotate(-7.16197 234 216)" stroke-width="4" stroke-linecap="square">
    <path d="M30 216H210" stroke="#707ddd"/><path d="M230 216H440" stroke="#31e2e7"/>
  </g>
</svg>
