<svg xmlns="http://www.w3.org/2000/svg" viewBox="0 0 520 240" role="img" aria-labelledby="title desc">
  <title id="title">BiDi kernel word</title>
  <desc id="desc">The bi seed mirrored and duplicated into the reciprocal bidi kernel word.</desc>
  <defs><linearGradient id="kernel-phase" x1="28" y1="0" x2="480" y2="0" gradientUnits="userSpaceOnUse"><stop stop-color="#707ddd"/><stop offset=".58" stop-color="#137dff"/><stop offset="1" stop-color="#31e2e7"/></linearGradient></defs>
  <g fill="url(#kernel-phase)">
    <path transform="translate(28 190) scale(.12 -.2)" d="M690 -14Q600 -14 528 4.5Q456 23 405 57.5Q354 92 327 139.5Q300 187 300 245Q300 303 327 351Q354 399 405 433.5Q456 468 528 486.5Q600 505 690 505Q798 505 882.5 476Q967 447 1015 389Q1063 331 1063 245Q1063 163 1015 105Q967 47 882.5 16.5Q798 -14 690 -14ZM600 138Q668 138 716 150Q764 162 789 186Q814 210 814 245Q814 299 758 325.5Q702 352 600 352Q524 352 460.5 343Q397 334 358.5 311Q320 288 320 245Q320 203 358.5 180Q397 157 460.5 147.5Q524 138 600 138ZM320 690V190Q320 126 315.5 74.5Q311 23 306 0H80V690Z"/>
    <path transform="translate(179 190) rotate(-7.16197) scale(.13 -.2)" d="M309 747V597H55V747ZM62 490H302V0H62Z"/>
    <path transform="translate(407 190) scale(-.12 -.2)" d="M690 -14Q600 -14 528 4.5Q456 23 405 57.5Q354 92 327 139.5Q300 187 300 245Q300 303 327 351Q354 399 405 433.5Q456 468 528 486.5Q600 505 690 505Q798 505 882.5 476Q967 447 1015 389Q1063 331 1063 245Q1063 163 1015 105Q967 47 882.5 16.5Q798 -14 690 -14ZM600 138Q668 138 716 150Q764 162 789 186Q814 210 814 245Q814 299 758 325.5Q702 352 600 352Q524 352 460.5 343Q397 334 358.5 311Q320 288 320 245Q320 203 358.5 180Q397 157 460.5 147.5Q524 138 600 138ZM320 690V190Q320 126 315.5 74.5Q311 23 306 0H80V690Z"/>
    <path transform="translate(432 190) rotate(-2) scale(.13 -.2)" d="M309 747V597H55V747ZM62 490H302V0H62Z"/>
  </g>
  <path d="M28 218H480" fill="none" stroke="url(#kernel-phase)" stroke-width="4" transform="rotate(-7.16197 254 218)"/>
</svg>
