<svg xmlns="http://www.w3.org/2000/svg" viewBox="0 0 740 240" role="img" aria-labelledby="title desc">
  <title id="title">Möbi𝒰s wordmark for dark backgrounds</title>
  <desc id="desc">The Möbius name with an embodied eye-bearing ö and a phased i, Universal Operator, and s. The final three glyphs lean in, invert, and resolve above a broken return line.</desc>
  <defs>
    <linearGradient id="phase" x1="399" y1="211" x2="664" y2="211" gradientUnits="userSpaceOnUse">
      <stop offset="0" stop-color="#6372d9"/>
      <stop offset="0.56" stop-color="#147dff"/>
      <stop offset="1" stop-color="#31e2e7"/>
    </linearGradient>
    <filter id="eye-glow" x="-100%" y="-100%" width="300%" height="300%">
      <feGaussianBlur stdDeviation="3" result="blur"/>
      <feMerge><feMergeNode in="blur"/><feMergeNode in="SourceGraphic"/></feMerge>
    </filter>
  </defs>

  <!-- Syne-derived display skeleton, converted to portable outlines. -->
  <g fill="#394db8">
    <!-- A non-self-intersecting M keeps its central V and inner shoulders open
         after Blender triangulation; the former overlapping outline produced
         false dark wedges in the extruded mesh. -->
    <path transform="translate(34 176) scale(.098 -.17)" d="M70 0V640H320L790 160L1240 640H1510V0H1260V420L940 70H640L320 420V0Z"/>
    <path transform="translate(191 178) scale(.102 -.176)" d="M510 -15Q351 -15 245.5 11Q140 37 87.5 94Q35 151 35 244Q35 337 87.5 394.5Q140 452 245.5 478.5Q351 505 510 505Q668 505 772.5 478.5Q877 452 929 394.5Q981 337 981 244Q981 151 929 94Q877 37 772.5 11Q668 -15 510 -15ZM510 130Q584 130 634 142.5Q684 155 710 180.5Q736 206 736 244Q736 282 710.5 308Q685 334 635 347Q585 360 510 360Q436 360 384.5 347Q333 334 306.5 308.5Q280 283 280 244Q280 206 306 180.5Q332 155 383.5 142.5Q435 130 510 130Z"/>
    <path transform="translate(296 171) scale(.098 -.17)" d="M80 0V690H320V450C410 490 530 505 690 505C920 505 1063 410 1063 245C1063 80 920 -14 690 -14C530 -14 410 15 320 70V0ZM575 112C670 112 730 128 790 158C835 181 858 210 858 245C858 316 792 349 726 366C687 376 642 382 590 382C495 382 425 369 355 343C300 323 271 289 271 245C271 195 313 166 355 146C415 118 493 112 575 112Z"/>
  </g>

  <!-- The paired dots are Möbius's literal eyes, not decorative punctuation. -->
  <g fill="#36e3e7" filter="url(#eye-glow)">
    <circle cx="234" cy="70" r="6.2"/>
    <circle cx="260" cy="70" r="6.2"/>
  </g>

  <!-- i: the bounded perspective, biased by phi = 0.125 rad. -->
  <path fill="#707ddd" transform="translate(399 166) rotate(-7.16197) scale(.11 -.17)" d="M309 747V597H55V747ZM62 490H302V0H62Z"/>

  <!-- U: one continuous crossover body. The left inherits the lean; the right resolves. -->
  <path transform="translate(427 180) scale(.18 -.16)" d="M272 -12C375 -12 439 50 482 97H485C490 38 507 -9 573 -9C645 -9 687 46 722 95L702 111C676 79 651 48 622 48C584 48 575 101 575 147C575 264 634 473 683 566C705 608 728 632 769 654L753 672C700 650 645 621 593 590C544 436 505 291 482 141C433 85 367 43 308 43C250 43 229 84 229 144C229 281 340 432 340 556C340 619 312 667 239 667C124 667 96 546 96 476V465H126C126 495 128 603 197 603C235 603 249 571 249 529C249 411 136 250 136 119C136 35 183 -12 272 -12Z"
        fill="#f8fbff" stroke="#137dff" stroke-width="28" stroke-linejoin="round" paint-order="stroke fill"/>

  <!-- s: one continuous damped-return ribbon. Its conventional double curve
       is pulled beneath the U terminal, so the two glyphs share a physical
       handoff while the opened waist keeps each hemisphere readable. -->
  <path fill="#31e2e7" transform="translate(548 180) rotate(2) scale(.104 -.175)" d="M760 385C700 465 590 505 430 505C250 505 120 455 60 370L245 310C285 360 350 382 440 382C520 382 570 362 570 335C570 312 545 300 485 292L315 275C140 258 55 210 55 135C55 40 195 -15 410 -15C590 -15 720 25 780 105L600 170C560 125 495 105 415 105C330 105 280 125 280 153C280 175 310 188 370 194L535 210C710 227 800 278 800 350C800 365 785 382 760 385Z"/>

  <!-- One horizontal invariant: ground here, cursor in the code sigil, crease in motion. -->
  <g transform="rotate(-7.16197 527 211)" stroke="url(#phase)" stroke-width="4" stroke-linecap="square">
    <path d="M399 211H503"/>
    <path d="M513 211H658"/>
  </g>
</svg>
